<svg width="113" height="76" viewBox="0 0 113 76" fill="none" xmlns="http://www.w3.org/2000/svg">
<path fill-rule="evenodd" clip-rule="evenodd" d="M78.7336 70.4475H97.1314L107.844 59.7791L107.846 41.1455H108.396V60.0074L97.3597 70.9999H78.7336V70.4475" fill="#FF0000"/>
<g filter="url(#filter0_bdd_1978_19866)">
<path fill-rule="evenodd" clip-rule="evenodd" d="M8.2235 8V67.2098H95.9L104.3 58.8303V8H8.2235Z" fill="black" fill-opacity="0.3"/>
</g>
<g filter="url(#filter1_d_1978_19866)">
<mask id="path-3-inside-1_1978_19866" fill="white">
<path fill-rule="evenodd" clip-rule="evenodd" d="M8.00021 8.17505V67.5623H96.0854L104.524 59.1577V8.17505H8.00021"/>
</mask>
<path d="M8.00021 67.5623V68.5623H7.00021V67.5623H8.00021ZM96.0854 67.5623L96.7911 68.2708L96.4984 68.5623H96.0854V67.5623ZM104.524 59.1577H105.524V59.5731L105.23 59.8662L104.524 59.1577ZM104.524 8.17505V7.17505H105.524V8.17505H104.524ZM9.00021 8.17505V67.5623H7.00021V8.17505H9.00021ZM8.00021 66.5623H96.0854V68.5623H8.00021V66.5623ZM95.3798 66.8537L103.819 58.4491L105.23 59.8662L96.7911 68.2708L95.3798 66.8537ZM103.524 59.1577V8.17505H105.524V59.1577H103.524ZM104.524 9.17505H8.00021V7.17505H104.524V9.17505Z" fill="#FF0000" mask="url(#path-3-inside-1_1978_19866)"/>
</g>
<path d="M51.4248 21.543C51.4248 22.0169 51.3363 22.4388 51.1592 22.8086C50.9873 23.1784 50.7451 23.4935 50.4326 23.7539C50.1253 24.0091 49.7607 24.2018 49.3389 24.332C48.9222 24.4622 48.4717 24.5273 47.9873 24.5273C47.6488 24.5273 47.3337 24.4987 47.042 24.4414C46.7555 24.3841 46.4977 24.3138 46.2686 24.2305C46.0446 24.1471 45.8545 24.0612 45.6982 23.9727C45.5472 23.8841 45.4404 23.8086 45.3779 23.7461C45.3206 23.6836 45.2764 23.6055 45.2451 23.5117C45.2191 23.4128 45.2061 23.2826 45.2061 23.1211C45.2061 23.0065 45.2113 22.9128 45.2217 22.8398C45.2321 22.7617 45.2477 22.6992 45.2686 22.6523C45.2894 22.6055 45.3154 22.5742 45.3467 22.5586C45.3779 22.5378 45.4144 22.5273 45.4561 22.5273C45.529 22.5273 45.6305 22.5716 45.7607 22.6602C45.8962 22.7487 46.068 22.8451 46.2764 22.9492C46.4847 23.0534 46.7347 23.1523 47.0264 23.2461C47.3232 23.3346 47.6644 23.3789 48.0498 23.3789C48.3415 23.3789 48.6071 23.3398 48.8467 23.2617C49.0915 23.1836 49.2998 23.0742 49.4717 22.9336C49.6488 22.7878 49.7842 22.6107 49.8779 22.4023C49.9717 22.194 50.0186 21.957 50.0186 21.6914C50.0186 21.4049 49.9535 21.1602 49.8232 20.957C49.693 20.7539 49.5212 20.5768 49.3076 20.4258C49.0941 20.2695 48.8493 20.1289 48.5732 20.0039C48.3024 19.8737 48.0238 19.7435 47.7373 19.6133C47.4508 19.4779 47.1722 19.3294 46.9014 19.168C46.6305 19.0065 46.3883 18.8164 46.1748 18.5977C45.9613 18.3789 45.7868 18.1237 45.6514 17.832C45.5212 17.5352 45.4561 17.181 45.4561 16.7695C45.4561 16.3477 45.5316 15.9727 45.6826 15.6445C45.8389 15.3112 46.0524 15.0326 46.3232 14.8086C46.5993 14.5846 46.9248 14.4154 47.2998 14.3008C47.68 14.181 48.0889 14.1211 48.5264 14.1211C48.7503 14.1211 48.9743 14.1419 49.1982 14.1836C49.4274 14.2201 49.641 14.2721 49.8389 14.3398C50.042 14.4023 50.2217 14.4753 50.3779 14.5586C50.5342 14.6367 50.6357 14.7018 50.6826 14.7539C50.7347 14.8008 50.7686 14.8398 50.7842 14.8711C50.7998 14.8971 50.8128 14.9336 50.8232 14.9805C50.8337 15.0221 50.8415 15.0742 50.8467 15.1367C50.8519 15.1992 50.8545 15.2799 50.8545 15.3789C50.8545 15.4727 50.8493 15.556 50.8389 15.6289C50.8337 15.7018 50.8232 15.7643 50.8076 15.8164C50.792 15.8633 50.7686 15.8997 50.7373 15.9258C50.7113 15.9466 50.68 15.957 50.6436 15.957C50.5863 15.957 50.4951 15.9206 50.3701 15.8477C50.2503 15.7747 50.1019 15.694 49.9248 15.6055C49.7477 15.5117 49.5368 15.4284 49.292 15.3555C49.0524 15.2773 48.7816 15.2383 48.4795 15.2383C48.1982 15.2383 47.9535 15.2773 47.7451 15.3555C47.5368 15.4284 47.3649 15.5273 47.2295 15.6523C47.0941 15.7773 46.9925 15.9258 46.9248 16.0977C46.8571 16.2695 46.8232 16.4518 46.8232 16.6445C46.8232 16.9258 46.8883 17.168 47.0186 17.3711C47.1488 17.5742 47.3206 17.7539 47.5342 17.9102C47.7529 18.0664 48.0003 18.2096 48.2764 18.3398C48.5524 18.4701 48.8337 18.6029 49.1201 18.7383C49.4066 18.8685 49.6878 19.0143 49.9639 19.1758C50.2399 19.332 50.4847 19.5195 50.6982 19.7383C50.917 19.9518 51.0915 20.207 51.2217 20.5039C51.3571 20.7956 51.4248 21.1419 51.4248 21.543ZM59.2061 20.3633C59.2061 20.5664 59.154 20.7122 59.0498 20.8008C58.9508 20.8841 58.8363 20.9258 58.7061 20.9258H54.0967C54.0967 21.3164 54.1357 21.668 54.2139 21.9805C54.292 22.293 54.4222 22.5612 54.6045 22.7852C54.7868 23.0091 55.0238 23.181 55.3154 23.3008C55.6071 23.4206 55.9639 23.4805 56.3857 23.4805C56.7191 23.4805 57.016 23.4544 57.2764 23.4023C57.5368 23.3451 57.7607 23.2826 57.9482 23.2148C58.141 23.1471 58.2972 23.0872 58.417 23.0352C58.542 22.9779 58.6357 22.9492 58.6982 22.9492C58.7347 22.9492 58.766 22.9596 58.792 22.9805C58.8232 22.9961 58.8467 23.0221 58.8623 23.0586C58.8779 23.0951 58.8883 23.1471 58.8936 23.2148C58.904 23.2773 58.9092 23.3555 58.9092 23.4492C58.9092 23.5169 58.9066 23.5768 58.9014 23.6289C58.8962 23.6758 58.8883 23.7201 58.8779 23.7617C58.8727 23.7982 58.8597 23.832 58.8389 23.8633C58.8232 23.8945 58.7998 23.9258 58.7686 23.957C58.7425 23.9831 58.6592 24.0299 58.5186 24.0977C58.3779 24.1602 58.1956 24.2227 57.9717 24.2852C57.7477 24.3477 57.4873 24.4023 57.1904 24.4492C56.8988 24.5013 56.5863 24.5273 56.2529 24.5273C55.6748 24.5273 55.167 24.4466 54.7295 24.2852C54.2972 24.1237 53.9326 23.8841 53.6357 23.5664C53.3389 23.2487 53.1149 22.8503 52.9639 22.3711C52.8128 21.8919 52.7373 21.3346 52.7373 20.6992C52.7373 20.0951 52.8154 19.5534 52.9717 19.0742C53.1279 18.5898 53.3519 18.181 53.6436 17.8477C53.9404 17.5091 54.2972 17.2513 54.7139 17.0742C55.1305 16.8919 55.5967 16.8008 56.1123 16.8008C56.6644 16.8008 57.1331 16.8893 57.5186 17.0664C57.9092 17.2435 58.2295 17.4831 58.4795 17.7852C58.7295 18.082 58.9118 18.4336 59.0264 18.8398C59.1462 19.2409 59.2061 19.6706 59.2061 20.1289V20.3633ZM57.9092 19.9805C57.9248 19.3034 57.7738 18.7721 57.4561 18.3867C57.1436 18.0013 56.6774 17.8086 56.0576 17.8086C55.7399 17.8086 55.4613 17.8685 55.2217 17.9883C54.9821 18.1081 54.7816 18.2669 54.6201 18.4648C54.4587 18.6628 54.3337 18.8945 54.2451 19.1602C54.1566 19.4206 54.1071 19.694 54.0967 19.9805H57.9092ZM67.6436 20.5586C67.6436 21.1732 67.5758 21.7253 67.4404 22.2148C67.3102 22.7044 67.1149 23.1211 66.8545 23.4648C66.5993 23.8034 66.2816 24.0664 65.9014 24.2539C65.5212 24.4362 65.0863 24.5273 64.5967 24.5273C64.3883 24.5273 64.1956 24.5065 64.0186 24.4648C63.8415 24.4232 63.667 24.3581 63.4951 24.2695C63.3285 24.181 63.1618 24.069 62.9951 23.9336C62.8285 23.7982 62.6514 23.6393 62.4639 23.457V26.9727C62.4639 27.0143 62.4535 27.0508 62.4326 27.082C62.4118 27.1133 62.3779 27.1393 62.3311 27.1602C62.2842 27.181 62.2191 27.1966 62.1357 27.207C62.0524 27.2174 61.9456 27.2227 61.8154 27.2227C61.6904 27.2227 61.5863 27.2174 61.5029 27.207C61.4196 27.1966 61.3519 27.181 61.2998 27.1602C61.2529 27.1393 61.2191 27.1133 61.1982 27.082C61.1826 27.0508 61.1748 27.0143 61.1748 26.9727V17.1523C61.1748 17.1055 61.1826 17.069 61.1982 17.043C61.2139 17.0117 61.2451 16.9857 61.292 16.9648C61.3389 16.944 61.3988 16.931 61.4717 16.9258C61.5446 16.9154 61.6331 16.9102 61.7373 16.9102C61.8467 16.9102 61.9352 16.9154 62.0029 16.9258C62.0758 16.931 62.1357 16.944 62.1826 16.9648C62.2295 16.9857 62.2607 17.0117 62.2764 17.043C62.2972 17.069 62.3076 17.1055 62.3076 17.1523V18.0977C62.5212 17.8789 62.7269 17.6888 62.9248 17.5273C63.1227 17.3659 63.3206 17.2331 63.5186 17.1289C63.7217 17.0195 63.9274 16.9388 64.1357 16.8867C64.3493 16.8294 64.5732 16.8008 64.8076 16.8008C65.318 16.8008 65.7529 16.8997 66.1123 17.0977C66.4717 17.2956 66.7633 17.5664 66.9873 17.9102C67.2165 18.2539 67.3831 18.6549 67.4873 19.1133C67.5915 19.5664 67.6436 20.0482 67.6436 20.5586ZM66.2842 20.707C66.2842 20.3477 66.2555 20.0013 66.1982 19.668C66.1462 19.3294 66.0524 19.0299 65.917 18.7695C65.7868 18.5091 65.6097 18.3008 65.3857 18.1445C65.1618 17.9883 64.8831 17.9102 64.5498 17.9102C64.3831 17.9102 64.2191 17.9362 64.0576 17.9883C63.8962 18.0352 63.7321 18.1133 63.5654 18.2227C63.3988 18.3268 63.2243 18.4674 63.042 18.6445C62.8597 18.8164 62.667 19.0299 62.4639 19.2852V22.082C62.818 22.5143 63.154 22.8451 63.4717 23.0742C63.7894 23.3034 64.1227 23.418 64.4717 23.418C64.7946 23.418 65.0706 23.3398 65.2998 23.1836C65.5342 23.0273 65.7217 22.819 65.8623 22.5586C66.0081 22.2982 66.1149 22.0065 66.1826 21.6836C66.2503 21.3607 66.2842 21.0352 66.2842 20.707ZM73.917 22.2695C73.917 22.6289 73.8493 22.9492 73.7139 23.2305C73.5837 23.5117 73.3962 23.7487 73.1514 23.9414C72.9066 24.1341 72.6149 24.2799 72.2764 24.3789C71.9378 24.4779 71.5654 24.5273 71.1592 24.5273C70.9092 24.5273 70.6696 24.5065 70.4404 24.4648C70.2165 24.4284 70.0133 24.3815 69.8311 24.3242C69.654 24.2617 69.5029 24.1992 69.3779 24.1367C69.2529 24.069 69.1618 24.0091 69.1045 23.957C69.0472 23.9049 69.0055 23.832 68.9795 23.7383C68.9535 23.6445 68.9404 23.5169 68.9404 23.3555C68.9404 23.2565 68.9456 23.1732 68.9561 23.1055C68.9665 23.0378 68.9795 22.9831 68.9951 22.9414C69.0107 22.8997 69.0316 22.8711 69.0576 22.8555C69.0889 22.8346 69.1227 22.8242 69.1592 22.8242C69.2165 22.8242 69.2998 22.8607 69.4092 22.9336C69.5238 23.0013 69.6618 23.0768 69.8232 23.1602C69.9899 23.2435 70.1852 23.3216 70.4092 23.3945C70.6331 23.4622 70.891 23.4961 71.1826 23.4961C71.4014 23.4961 71.5993 23.4727 71.7764 23.4258C71.9535 23.3789 72.1071 23.3112 72.2373 23.2227C72.3675 23.1289 72.4665 23.0117 72.5342 22.8711C72.6071 22.7305 72.6436 22.5638 72.6436 22.3711C72.6436 22.1732 72.5915 22.0065 72.4873 21.8711C72.3883 21.7357 72.2555 21.6159 72.0889 21.5117C71.9222 21.4076 71.7347 21.3164 71.5264 21.2383C71.318 21.1549 71.1019 21.069 70.8779 20.9805C70.6592 20.8919 70.443 20.793 70.2295 20.6836C70.0212 20.569 69.8337 20.431 69.667 20.2695C69.5003 20.1081 69.3649 19.9154 69.2607 19.6914C69.1618 19.4674 69.1123 19.1992 69.1123 18.8867C69.1123 18.6107 69.1644 18.3477 69.2686 18.0977C69.3779 17.8424 69.5394 17.6211 69.7529 17.4336C69.9665 17.2409 70.2321 17.0872 70.5498 16.9727C70.8727 16.8581 71.2477 16.8008 71.6748 16.8008C71.8623 16.8008 72.0498 16.8164 72.2373 16.8477C72.4248 16.8789 72.5941 16.918 72.7451 16.9648C72.8962 17.0117 73.0238 17.0638 73.1279 17.1211C73.2373 17.1732 73.318 17.2201 73.3701 17.2617C73.4274 17.3034 73.4639 17.3398 73.4795 17.3711C73.5003 17.4023 73.5133 17.4388 73.5186 17.4805C73.529 17.5169 73.5368 17.5638 73.542 17.6211C73.5524 17.6784 73.5576 17.7487 73.5576 17.832C73.5576 17.9206 73.5524 17.9987 73.542 18.0664C73.5368 18.1289 73.5238 18.181 73.5029 18.2227C73.4873 18.2643 73.4665 18.2956 73.4404 18.3164C73.4144 18.332 73.3857 18.3398 73.3545 18.3398C73.3076 18.3398 73.2399 18.3112 73.1514 18.2539C73.0628 18.1966 72.9482 18.1367 72.8076 18.0742C72.667 18.0065 72.5003 17.944 72.3076 17.8867C72.1201 17.8294 71.904 17.8008 71.6592 17.8008C71.4404 17.8008 71.2477 17.8268 71.0811 17.8789C70.9144 17.9258 70.7764 17.9961 70.667 18.0898C70.5628 18.1784 70.4821 18.2852 70.4248 18.4102C70.3727 18.5352 70.3467 18.6706 70.3467 18.8164C70.3467 19.0195 70.3988 19.1914 70.5029 19.332C70.6071 19.4674 70.7425 19.5872 70.9092 19.6914C71.0758 19.7956 71.266 19.8893 71.4795 19.9727C71.693 20.056 71.9092 20.1419 72.1279 20.2305C72.3519 20.319 72.5706 20.418 72.7842 20.5273C73.0029 20.6367 73.1956 20.7695 73.3623 20.9258C73.529 21.082 73.6618 21.2695 73.7607 21.4883C73.8649 21.707 73.917 21.9674 73.917 22.2695ZM77.0576 24.1836C77.0576 24.2253 77.0472 24.2617 77.0264 24.293C77.0055 24.319 76.9717 24.3424 76.9248 24.3633C76.8779 24.3841 76.8128 24.3997 76.7295 24.4102C76.6462 24.4206 76.5394 24.4258 76.4092 24.4258C76.2842 24.4258 76.18 24.4206 76.0967 24.4102C76.0133 24.3997 75.9456 24.3841 75.8936 24.3633C75.8467 24.3424 75.8128 24.319 75.792 24.293C75.7764 24.2617 75.7686 24.2253 75.7686 24.1836V17.1523C75.7686 17.1159 75.7764 17.082 75.792 17.0508C75.8128 17.0195 75.8467 16.9935 75.8936 16.9727C75.9456 16.9518 76.0133 16.9362 76.0967 16.9258C76.18 16.9154 76.2842 16.9102 76.4092 16.9102C76.5394 16.9102 76.6462 16.9154 76.7295 16.9258C76.8128 16.9362 76.8779 16.9518 76.9248 16.9727C76.9717 16.9935 77.0055 17.0195 77.0264 17.0508C77.0472 17.082 77.0576 17.1159 77.0576 17.1523V24.1836ZM77.2061 14.7773C77.2061 15.0794 77.1488 15.2852 77.0342 15.3945C76.9196 15.5039 76.7087 15.5586 76.4014 15.5586C76.0993 15.5586 75.891 15.5065 75.7764 15.4023C75.667 15.293 75.6123 15.0898 75.6123 14.793C75.6123 14.4909 75.6696 14.2852 75.7842 14.1758C75.8988 14.0664 76.1097 14.0117 76.417 14.0117C76.7191 14.0117 76.9248 14.0664 77.0342 14.1758C77.1488 14.2799 77.2061 14.4805 77.2061 14.7773ZM83.8545 22.2695C83.8545 22.6289 83.7868 22.9492 83.6514 23.2305C83.5212 23.5117 83.3337 23.7487 83.0889 23.9414C82.8441 24.1341 82.5524 24.2799 82.2139 24.3789C81.8753 24.4779 81.5029 24.5273 81.0967 24.5273C80.8467 24.5273 80.6071 24.5065 80.3779 24.4648C80.154 24.4284 79.9508 24.3815 79.7686 24.3242C79.5915 24.2617 79.4404 24.1992 79.3154 24.1367C79.1904 24.069 79.0993 24.0091 79.042 23.957C78.9847 23.9049 78.943 23.832 78.917 23.7383C78.891 23.6445 78.8779 23.5169 78.8779 23.3555C78.8779 23.2565 78.8831 23.1732 78.8936 23.1055C78.904 23.0378 78.917 22.9831 78.9326 22.9414C78.9482 22.8997 78.9691 22.8711 78.9951 22.8555C79.0264 22.8346 79.0602 22.8242 79.0967 22.8242C79.154 22.8242 79.2373 22.8607 79.3467 22.9336C79.4613 23.0013 79.5993 23.0768 79.7607 23.1602C79.9274 23.2435 80.1227 23.3216 80.3467 23.3945C80.5706 23.4622 80.8285 23.4961 81.1201 23.4961C81.3389 23.4961 81.5368 23.4727 81.7139 23.4258C81.891 23.3789 82.0446 23.3112 82.1748 23.2227C82.305 23.1289 82.404 23.0117 82.4717 22.8711C82.5446 22.7305 82.5811 22.5638 82.5811 22.3711C82.5811 22.1732 82.529 22.0065 82.4248 21.8711C82.3258 21.7357 82.193 21.6159 82.0264 21.5117C81.8597 21.4076 81.6722 21.3164 81.4639 21.2383C81.2555 21.1549 81.0394 21.069 80.8154 20.9805C80.5967 20.8919 80.3805 20.793 80.167 20.6836C79.9587 20.569 79.7712 20.431 79.6045 20.2695C79.4378 20.1081 79.3024 19.9154 79.1982 19.6914C79.0993 19.4674 79.0498 19.1992 79.0498 18.8867C79.0498 18.6107 79.1019 18.3477 79.2061 18.0977C79.3154 17.8424 79.4769 17.6211 79.6904 17.4336C79.904 17.2409 80.1696 17.0872 80.4873 16.9727C80.8102 16.8581 81.1852 16.8008 81.6123 16.8008C81.7998 16.8008 81.9873 16.8164 82.1748 16.8477C82.3623 16.8789 82.5316 16.918 82.6826 16.9648C82.8337 17.0117 82.9613 17.0638 83.0654 17.1211C83.1748 17.1732 83.2555 17.2201 83.3076 17.2617C83.3649 17.3034 83.4014 17.3398 83.417 17.3711C83.4378 17.4023 83.4508 17.4388 83.4561 17.4805C83.4665 17.5169 83.4743 17.5638 83.4795 17.6211C83.4899 17.6784 83.4951 17.7487 83.4951 17.832C83.4951 17.9206 83.4899 17.9987 83.4795 18.0664C83.4743 18.1289 83.4613 18.181 83.4404 18.2227C83.4248 18.2643 83.404 18.2956 83.3779 18.3164C83.3519 18.332 83.3232 18.3398 83.292 18.3398C83.2451 18.3398 83.1774 18.3112 83.0889 18.2539C83.0003 18.1966 82.8857 18.1367 82.7451 18.0742C82.6045 18.0065 82.4378 17.944 82.2451 17.8867C82.0576 17.8294 81.8415 17.8008 81.5967 17.8008C81.3779 17.8008 81.1852 17.8268 81.0186 17.8789C80.8519 17.9258 80.7139 17.9961 80.6045 18.0898C80.5003 18.1784 80.4196 18.2852 80.3623 18.4102C80.3102 18.5352 80.2842 18.6706 80.2842 18.8164C80.2842 19.0195 80.3363 19.1914 80.4404 19.332C80.5446 19.4674 80.68 19.5872 80.8467 19.6914C81.0133 19.7956 81.2035 19.8893 81.417 19.9727C81.6305 20.056 81.8467 20.1419 82.0654 20.2305C82.2894 20.319 82.5081 20.418 82.7217 20.5273C82.9404 20.6367 83.1331 20.7695 83.2998 20.9258C83.4665 21.082 83.5993 21.2695 83.6982 21.4883C83.8024 21.707 83.8545 21.9674 83.8545 22.2695ZM97.0498 23.9023C97.0915 24.0169 97.1123 24.1107 97.1123 24.1836C97.1175 24.2513 97.0993 24.3034 97.0576 24.3398C97.016 24.3763 96.9456 24.3997 96.8467 24.4102C96.7529 24.4206 96.6253 24.4258 96.4639 24.4258C96.3024 24.4258 96.1722 24.4206 96.0732 24.4102C95.9795 24.4049 95.9066 24.3945 95.8545 24.3789C95.8076 24.3581 95.7712 24.332 95.7451 24.3008C95.7243 24.2695 95.7035 24.2305 95.6826 24.1836L94.8154 21.7227H90.6123L89.7842 24.1523C89.7686 24.1992 89.7477 24.2409 89.7217 24.2773C89.6956 24.3086 89.6566 24.3372 89.6045 24.3633C89.5576 24.3841 89.4873 24.3997 89.3936 24.4102C89.305 24.4206 89.1878 24.4258 89.042 24.4258C88.891 24.4258 88.766 24.418 88.667 24.4023C88.5732 24.3919 88.5055 24.3685 88.4639 24.332C88.4274 24.2956 88.4092 24.2435 88.4092 24.1758C88.4144 24.1029 88.4378 24.0091 88.4795 23.8945L91.8701 14.5039C91.891 14.4466 91.917 14.3997 91.9482 14.3633C91.9847 14.3268 92.0342 14.2982 92.0967 14.2773C92.1644 14.2565 92.2477 14.2435 92.3467 14.2383C92.4508 14.2279 92.5811 14.2227 92.7373 14.2227C92.904 14.2227 93.042 14.2279 93.1514 14.2383C93.2607 14.2435 93.3493 14.2565 93.417 14.2773C93.4847 14.2982 93.5368 14.3294 93.5732 14.3711C93.6097 14.4076 93.6383 14.4544 93.6592 14.5117L97.0498 23.9023ZM92.6982 15.6133H92.6904L90.9482 20.6523H94.4639L92.6982 15.6133ZM100.089 24.1758C100.089 24.2174 100.078 24.2539 100.058 24.2852C100.037 24.3164 100 24.3424 99.9482 24.3633C99.8962 24.3789 99.8258 24.3919 99.7373 24.4023C99.654 24.418 99.5472 24.4258 99.417 24.4258C99.292 24.4258 99.1852 24.418 99.0967 24.4023C99.0081 24.3919 98.9378 24.3789 98.8857 24.3633C98.8337 24.3424 98.7972 24.3164 98.7764 24.2852C98.7555 24.2539 98.7451 24.2174 98.7451 24.1758V14.4727C98.7451 14.431 98.7555 14.3945 98.7764 14.3633C98.8024 14.332 98.8415 14.3086 98.8936 14.293C98.9508 14.2721 99.0212 14.2565 99.1045 14.2461C99.193 14.2305 99.2972 14.2227 99.417 14.2227C99.5472 14.2227 99.654 14.2305 99.7373 14.2461C99.8258 14.2565 99.8962 14.2721 99.9482 14.293C100 14.3086 100.037 14.332 100.058 14.3633C100.078 14.3945 100.089 14.431 100.089 14.4727V24.1758Z" fill="#FFF8DC"/>
<path d="M24.0264 13.3164H11.8389L11.3701 13.7852V25.9727L11.8389 26.4414H24.0264L24.4951 25.9727V13.7852L24.0264 13.3164ZM23.5576 25.5039H15.1201V23.6289H17.2764C17.5576 24.1914 18.2139 24.5664 18.8701 24.5664C19.9014 24.5664 20.7451 23.7227 20.7451 22.6914C20.7451 21.6602 19.9014 20.8164 18.8701 20.8164C17.8389 20.8164 16.9951 21.6602 16.9951 22.6914H14.1826V25.5039H12.3076V14.2539H14.1826V16.4102C13.6201 16.6914 13.2451 17.3477 13.2451 18.0039C13.2451 19.0352 14.0889 19.8789 15.1201 19.8789C16.1514 19.8789 16.9951 19.0352 16.9951 18.0039H18.8701C18.8701 19.0352 19.7139 19.8789 20.7451 19.8789C21.7764 19.8789 22.6201 19.0352 22.6201 18.0039C22.6201 16.9727 21.7764 16.1289 20.7451 16.1289C20.0889 16.1289 19.4326 16.5039 19.1514 17.0664H16.7139C16.4326 16.5039 15.7764 16.1289 15.1201 16.1289V14.2539H23.5576V25.5039ZM17.9326 22.6914C17.9326 22.1289 18.3076 21.7539 18.8701 21.7539C19.4326 21.7539 19.8076 22.1289 19.8076 22.6914C19.8076 23.2539 19.4326 23.6289 18.8701 23.6289C18.3076 23.6289 17.9326 23.2539 17.9326 22.6914ZM15.1201 17.0664C15.6826 17.0664 16.0576 17.4414 16.0576 18.0039C16.0576 18.5664 15.6826 18.9414 15.1201 18.9414C14.5576 18.9414 14.1826 18.5664 14.1826 18.0039C14.1826 17.4414 14.5576 17.0664 15.1201 17.0664ZM20.7451 17.0664C21.3076 17.0664 21.6826 17.4414 21.6826 18.0039C21.6826 18.5664 21.3076 18.9414 20.7451 18.9414C20.1826 18.9414 19.8076 18.5664 19.8076 18.0039C19.8076 17.4414 20.1826 17.0664 20.7451 17.0664Z" fill="#FFF8DC"/>
<path d="M73.653 43.8125C73.653 44.4141 73.5456 44.9512 73.3308 45.4238C73.1159 45.8893 72.8044 46.2832 72.3962 46.6055C71.9952 46.9277 71.4974 47.1712 70.903 47.3359C70.3086 47.5007 69.6283 47.583 68.862 47.583C68.1459 47.583 67.5049 47.5078 66.9392 47.3574C66.3734 47.207 65.8936 46.985 65.4997 46.6914C65.1058 46.3978 64.805 46.0361 64.5974 45.6064C64.3897 45.1768 64.2858 44.6862 64.2858 44.1348C64.2858 43.6979 64.3575 43.2969 64.5007 42.9316C64.6439 42.5664 64.848 42.2298 65.113 41.9219C65.3851 41.6139 65.7181 41.3275 66.112 41.0625C66.5059 40.7904 66.9499 40.5326 67.444 40.2891C67.0144 40.0671 66.6348 39.8343 66.3054 39.5908C65.9759 39.3402 65.6967 39.0716 65.4675 38.7852C65.2383 38.4915 65.0629 38.18 64.9411 37.8506C64.8265 37.5212 64.7692 37.1631 64.7692 36.7764C64.7692 36.2894 64.8552 35.8346 65.0271 35.4121C65.2061 34.9824 65.4711 34.61 65.822 34.2949C66.18 33.9798 66.6312 33.7327 67.1755 33.5537C67.7269 33.3675 68.3679 33.2744 69.0983 33.2744C69.8002 33.2744 70.4053 33.3604 70.9138 33.5322C71.4294 33.6969 71.8519 33.9261 72.1814 34.2197C72.5179 34.5062 72.765 34.8464 72.9226 35.2402C73.0801 35.6341 73.1589 36.0566 73.1589 36.5078C73.1589 36.873 73.098 37.224 72.9763 37.5605C72.8617 37.8971 72.6898 38.2158 72.4606 38.5166C72.2315 38.8174 71.9486 39.1003 71.612 39.3652C71.2826 39.623 70.903 39.8665 70.4733 40.0957C70.9818 40.3464 71.433 40.6042 71.8269 40.8691C72.2279 41.1341 72.5609 41.4206 72.8259 41.7285C73.098 42.0293 73.3021 42.3516 73.4382 42.6953C73.5814 43.0319 73.653 43.4043 73.653 43.8125ZM71.3327 36.6797C71.3327 36.3789 71.279 36.1068 71.1716 35.8633C71.0713 35.6198 70.9209 35.4121 70.7204 35.2402C70.5199 35.0684 70.2692 34.9395 69.9685 34.8535C69.6748 34.7604 69.3383 34.7139 68.9587 34.7139C68.1853 34.7139 67.598 34.8893 67.197 35.2402C66.8031 35.5911 66.6062 36.071 66.6062 36.6797C66.6062 36.959 66.6527 37.2204 66.7458 37.4639C66.8461 37.7002 66.9965 37.9258 67.197 38.1406C67.4047 38.3555 67.6625 38.5667 67.9704 38.7744C68.2855 38.9749 68.6579 39.1862 69.0876 39.4082C69.8109 39.0358 70.3659 38.624 70.7526 38.1729C71.1394 37.7217 71.3327 37.224 71.3327 36.6797ZM71.7839 44.0059C71.7839 43.6764 71.723 43.3792 71.6013 43.1143C71.4795 42.8421 71.2933 42.5915 71.0427 42.3623C70.7992 42.126 70.4912 41.9004 70.1189 41.6855C69.7536 41.4635 69.3275 41.2344 68.8405 40.998C68.3894 41.2201 67.9919 41.4421 67.6481 41.6641C67.3116 41.8861 67.0323 42.1152 66.8103 42.3516C66.5954 42.5879 66.4307 42.8385 66.3161 43.1035C66.2087 43.3613 66.155 43.6478 66.155 43.9629C66.155 44.6576 66.3913 45.1947 66.864 45.5742C67.3438 45.9538 68.0564 46.1436 69.0017 46.1436C69.9183 46.1436 70.6094 45.9538 71.0749 45.5742C71.5476 45.1875 71.7839 44.6647 71.7839 44.0059ZM84.4812 46.584C84.4812 46.7129 84.4704 46.8275 84.4489 46.9277C84.4346 47.028 84.4095 47.1139 84.3737 47.1855C84.3451 47.25 84.3021 47.3001 84.2448 47.3359C84.1947 47.3646 84.1374 47.3789 84.073 47.3789H76.3923C76.292 47.3789 76.2025 47.3682 76.1237 47.3467C76.0521 47.318 75.9877 47.2751 75.9304 47.2178C75.8802 47.1605 75.8409 47.0781 75.8122 46.9707C75.7907 46.8633 75.78 46.7308 75.78 46.5732C75.78 46.43 75.7836 46.3047 75.7907 46.1973C75.805 46.0898 75.8301 45.9967 75.8659 45.918C75.9017 45.832 75.9447 45.7497 75.9948 45.6709C76.0521 45.585 76.1237 45.4954 76.2097 45.4023L78.906 42.5449C79.529 41.8861 80.0267 41.2952 80.3991 40.7725C80.7787 40.2497 81.0687 39.7734 81.2692 39.3438C81.4769 38.9141 81.613 38.5238 81.6774 38.1729C81.7419 37.8219 81.7741 37.4925 81.7741 37.1846C81.7741 36.8766 81.724 36.5866 81.6237 36.3145C81.5235 36.0352 81.3767 35.7917 81.1833 35.584C80.9971 35.3763 80.7608 35.2116 80.4743 35.0898C80.1879 34.9681 79.8584 34.9072 79.486 34.9072C79.0492 34.9072 78.6553 34.9681 78.3044 35.0898C77.9606 35.2116 77.6563 35.3441 77.3913 35.4873C77.1335 35.6305 76.9151 35.763 76.736 35.8848C76.5642 36.0065 76.4353 36.0674 76.3493 36.0674C76.2992 36.0674 76.2526 36.0531 76.2097 36.0244C76.1739 35.9958 76.1416 35.9492 76.113 35.8848C76.0915 35.8203 76.0736 35.7344 76.0593 35.627C76.045 35.5195 76.0378 35.3906 76.0378 35.2402C76.0378 35.1328 76.0414 35.0397 76.0485 34.9609C76.0557 34.8822 76.0664 34.8141 76.0808 34.7568C76.1022 34.6995 76.1273 34.6458 76.156 34.5957C76.1846 34.5456 76.2419 34.4847 76.3278 34.4131C76.4138 34.3343 76.5606 34.2305 76.7683 34.1016C76.9831 33.9727 77.2481 33.8473 77.5632 33.7256C77.8855 33.5967 78.2364 33.4893 78.6159 33.4033C79.0026 33.3174 79.4073 33.2744 79.8298 33.2744C80.503 33.2744 81.0902 33.3711 81.5915 33.5645C82.1 33.7507 82.5189 34.0085 82.8483 34.3379C83.1849 34.6673 83.4356 35.0505 83.6003 35.4873C83.765 35.9242 83.8474 36.3896 83.8474 36.8838C83.8474 37.3278 83.808 37.7718 83.7292 38.2158C83.6504 38.6527 83.4821 39.1289 83.2243 39.6445C82.9737 40.153 82.6084 40.7223 82.1286 41.3525C81.6488 41.9756 81.0114 42.6953 80.2165 43.5117L78.0144 45.8105H84.0622C84.1195 45.8105 84.1732 45.8285 84.2233 45.8643C84.2806 45.8929 84.3272 45.9395 84.363 46.0039C84.406 46.0684 84.4346 46.1507 84.4489 46.251C84.4704 46.3441 84.4812 46.4551 84.4812 46.584ZM92.4626 36.916C92.4626 37.4674 92.4017 37.9688 92.28 38.4199C92.1582 38.8711 91.972 39.2578 91.7214 39.5801C91.4707 39.8952 91.1521 40.1423 90.7653 40.3213C90.3858 40.5003 89.9382 40.5898 89.4226 40.5898C88.8998 40.5898 88.4522 40.5075 88.0798 40.3428C87.7074 40.1781 87.403 39.9417 87.1667 39.6338C86.9304 39.3187 86.7549 38.9391 86.6403 38.4951C86.5329 38.0439 86.4792 37.5319 86.4792 36.959C86.4792 36.4362 86.5365 35.9528 86.6511 35.5088C86.7728 35.0648 86.9554 34.6816 87.1989 34.3594C87.4424 34.0371 87.7539 33.7829 88.1335 33.5967C88.5202 33.4105 88.975 33.3174 89.4978 33.3174C90.0635 33.3174 90.5362 33.4141 90.9157 33.6074C91.3024 33.8008 91.6104 34.0622 91.8396 34.3916C92.0687 34.7139 92.2299 35.0934 92.323 35.5303C92.4161 35.9671 92.4626 36.429 92.4626 36.916ZM90.9587 36.9697C90.9587 36.5687 90.93 36.2142 90.8728 35.9062C90.8155 35.5911 90.7259 35.3298 90.6042 35.1221C90.4896 34.9144 90.3356 34.7604 90.1423 34.6602C89.9489 34.5527 89.7198 34.499 89.4548 34.499C89.2041 34.499 88.9857 34.5492 88.7995 34.6494C88.6133 34.7497 88.4593 34.9001 88.3376 35.1006C88.223 35.3011 88.1371 35.5518 88.0798 35.8525C88.0225 36.1462 87.9939 36.4935 87.9939 36.8945C87.9939 37.3815 88.0261 37.7897 88.0905 38.1191C88.1621 38.4414 88.2588 38.6992 88.3806 38.8926C88.5095 39.0788 88.667 39.2113 88.8532 39.29C89.0466 39.3617 89.265 39.3975 89.5085 39.3975C89.795 39.3975 90.0277 39.3438 90.2067 39.2363C90.3929 39.1289 90.5397 38.9714 90.6472 38.7637C90.7618 38.5488 90.8405 38.2946 90.8835 38.001C90.9336 37.7002 90.9587 37.3564 90.9587 36.9697ZM100.659 43.8662C100.659 44.4176 100.598 44.9189 100.476 45.3701C100.355 45.8213 100.168 46.208 99.9177 46.5303C99.667 46.8454 99.3483 47.0924 98.9616 47.2715C98.5821 47.4505 98.1345 47.54 97.6189 47.54C97.0961 47.54 96.6485 47.4577 96.2761 47.293C95.9037 47.1283 95.5993 46.8919 95.363 46.584C95.1267 46.2689 94.9512 45.8893 94.8366 45.4453C94.7292 44.9941 94.6755 44.4821 94.6755 43.9092C94.6755 43.3864 94.7328 42.903 94.8474 42.459C94.9691 42.015 95.1517 41.6318 95.3952 41.3096C95.6387 40.9873 95.9502 40.7331 96.3298 40.5469C96.7165 40.3607 97.1713 40.2676 97.694 40.2676C98.2598 40.2676 98.7325 40.3643 99.112 40.5576C99.4987 40.751 99.8067 41.0124 100.036 41.3418C100.265 41.6641 100.426 42.0436 100.519 42.4805C100.612 42.9173 100.659 43.3792 100.659 43.8662ZM99.155 43.9199C99.155 43.5189 99.1263 43.1644 99.069 42.8564C99.0118 42.5413 98.9222 42.2799 98.8005 42.0723C98.6859 41.8646 98.5319 41.7106 98.3386 41.6104C98.1452 41.5029 97.9161 41.4492 97.6511 41.4492C97.4004 41.4492 97.182 41.4993 96.9958 41.5996C96.8096 41.6999 96.6556 41.8503 96.5339 42.0508C96.4193 42.2513 96.3334 42.502 96.2761 42.8027C96.2188 43.0964 96.1901 43.4437 96.1901 43.8447C96.1901 44.3317 96.2224 44.7399 96.2868 45.0693C96.3584 45.3916 96.4551 45.6494 96.5769 45.8428C96.7058 46.029 96.8633 46.1615 97.0495 46.2402C97.2429 46.3118 97.4613 46.3477 97.7048 46.3477C97.9912 46.3477 98.224 46.2939 98.403 46.1865C98.5892 46.0791 98.736 45.9215 98.8435 45.7139C98.958 45.499 99.0368 45.2448 99.0798 44.9512C99.1299 44.6504 99.155 44.3066 99.155 43.9199ZM89.4226 47.4648C89.3868 47.5293 89.3438 47.5758 89.2937 47.6045C89.2435 47.6403 89.1827 47.6689 89.111 47.6904C89.0394 47.7191 88.9535 47.737 88.8532 47.7441C88.753 47.7585 88.6312 47.7656 88.488 47.7656C88.3304 47.7656 88.2015 47.7513 88.1013 47.7227C88.0082 47.694 87.9401 47.6546 87.8972 47.6045C87.8614 47.5615 87.847 47.5042 87.8542 47.4326C87.8685 47.3682 87.9043 47.293 87.9616 47.207L97.6296 33.3604C97.6654 33.3031 97.7084 33.2565 97.7585 33.2207C97.8086 33.1777 97.8695 33.1455 97.9411 33.124C98.0199 33.1025 98.1058 33.0882 98.1989 33.0811C98.2992 33.0667 98.4245 33.0596 98.5749 33.0596C98.7253 33.0596 98.847 33.0739 98.9401 33.1025C99.0404 33.124 99.112 33.1598 99.155 33.21C99.198 33.2601 99.2123 33.321 99.198 33.3926C99.1908 33.4642 99.1586 33.5394 99.1013 33.6182L89.4226 47.4648Z" fill="#FF0000"/>
<defs>
<filter id="filter0_bdd_1978_19866" x="4.22363" y="4" width="104.076" height="71.2097" filterUnits="userSpaceOnUse" color-interpolation-filters="sRGB">
<feFlood flood-opacity="0" result="BackgroundImageFix"/>
<feGaussianBlur in="BackgroundImageFix" stdDeviation="2"/>
<feComposite in2="SourceAlpha" operator="in" result="effect1_backgroundBlur_1978_19866"/>
<feColorMatrix in="SourceAlpha" type="matrix" values="0 0 0 0 0 0 0 0 0 0 0 0 0 0 0 0 0 0 127 0" result="hardAlpha"/>
<feOffset dy="4"/>
<feGaussianBlur stdDeviation="2"/>
<feColorMatrix type="matrix" values="0 0 0 0 0 0 0 0 0 0 0 0 0 0 0 0 0 0 0.25 0"/>
<feBlend mode="normal" in2="effect1_backgroundBlur_1978_19866" result="effect2_dropShadow_1978_19866"/>
<feColorMatrix in="SourceAlpha" type="matrix" values="0 0 0 0 0 0 0 0 0 0 0 0 0 0 0 0 0 0 127 0" result="hardAlpha"/>
<feOffset dy="4"/>
<feGaussianBlur stdDeviation="2"/>
<feColorMatrix type="matrix" values="0 0 0 0 0 0 0 0 0 0 0 0 0 0 0 0 0 0 0.25 0"/>
<feBlend mode="normal" in2="effect2_dropShadow_1978_19866" result="effect3_dropShadow_1978_19866"/>
<feBlend mode="normal" in="SourceGraphic" in2="effect3_dropShadow_1978_19866" result="shape"/>
</filter>
<filter id="filter1_d_1978_19866" x="0" y="0.175049" width="112.524" height="75.3872" filterUnits="userSpaceOnUse" color-interpolation-filters="sRGB">
<feFlood flood-opacity="0" result="BackgroundImageFix"/>
<feColorMatrix in="SourceAlpha" type="matrix" values="0 0 0 0 0 0 0 0 0 0 0 0 0 0 0 0 0 0 127 0" result="hardAlpha"/>
<feOffset/>
<feGaussianBlur stdDeviation="4"/>
<feColorMatrix type="matrix" values="0 0 0 0 0 0 0 0 0 0 0 0 0 0 0 0 0 0 0.25 0"/>
<feBlend mode="normal" in2="BackgroundImageFix" result="effect1_dropShadow_1978_19866"/>
<feBlend mode="normal" in="SourceGraphic" in2="effect1_dropShadow_1978_19866" result="shape"/>
</filter>
</defs>
</svg>
